:FULLY-SPECIFIED
:FORCE-ALL-JOINTS-BE-3DOF
:DEGREES
204
root 4.75426 15.1145 -25.3786 7.54358 -0.581321 4.9525
lfemur 6.06928 -9.27414 3.81757
ltibia 4.40188 -0 0
lfoot -31.5852 -17.9376 -1.01401
ltoes 53.9881 -0 0
rfemur -28.7021 -19.37 -8.35378
rtibia 47.1613 -0 0
rfoot -30.797 16.9871 1.43351
rtoes 59.5953 -0 0
lowerback -2.80566 -1.70869 -0.831955
upperback -0.716115 -2.21219 -7.25115
thorax 0.542937 -1.11203 -7.17422
lowerneck -11.6891 0.680518 5.70661
upperneck 3.63329 -0.12377 2.64418
head 3.23171 0.147389 -0.162609
lclavicle 4.67641e-14 -7.95139e-15 0
lhumerus -58.5322 -44.5513 115.097
lradius 55.1344 -0 0
lwrist 24.641 0 0
lhand 38.4781 29.7479 0.0190527
lfingers 7.12502 -0 0
lthumb 61.0971 42.1298 -0.0232683
rclavicle 4.67641e-14 -7.95139e-15 0
rhumerus -11.0717 -1.17051 -17.6679
rradius 90.2311 -0 0
rwrist -23.2607 0 0
rhand -20.5558 -42.0117 10.6927
rfingers 7.12502 -0 0
rthumb -3.30214 69.5011 -22.5264
205
root 4.7515 15.0987 -25.3975 7.5927 -0.818701 4.94427
lfemur 6.06133 -8.74284 3.63358
ltibia 4.77072 -0 0
lfoot -32.288 -16.9721 -0.931782
ltoes 53.377 -0 0
rfemur -29.3709 -19.7502 -8.13836
rtibia 47.8025 -0 0
rfoot -30.5277 17.5271 1.33347
rtoes 59.8427 -0 0
lowerback -2.637 -1.68228 -0.809706
upperback -0.718899 -2.1857 -7.22188
thorax 0.451283 -1.10117 -7.14604
lowerneck -11.5616 0.779135 5.90726
upperneck 3.58549 -0.00211569 2.52733
head 3.19255 0.203312 -0.226928
lclavicle 4.67641e-14 -7.95139e-15 0
lhumerus -58.7818 -44.746 115.37
lradius 55.1654 -0 0
lwrist 24.9041 0 0
lhand 38.189 29.6184 0.0178763
lfingers 7.12502 -0 0
lthumb 60.8547 42.2919 -0.0214836
rclavicle 4.67641e-14 -7.95139e-15 0
rhumerus -10.3548 -6.15851 -16.8535
rradius 87.0943 -0 0
rwrist -23.3423 0 0
rhand -25.7443 -45.7603 9.85842
rfingers 7.12502 -0 0
rthumb -7.93653 75.4093 -19.3596
206
root 4.74944 15.0848 -25.4181 7.6344 -0.981437 4.93067
lfemur 5.99481 -8.1227 3.43333
ltibia 5.21498 -0 0
lfoot -32.918 -15.9686 -0.824538
ltoes 52.6897 -0 0
rfemur -30.0091 -20.0823 -7.91874
rtibia 48.4596 -0 0
rfoot -30.1842 17.9602 1.19766
rtoes 60.0454 -0 0
lowerback -2.46271 -1.66411 -0.788973
upperback -0.719425 -2.17001 -7.18224
thorax 0.35884 -1.09575 -7.10574
lowerneck -11.4332 0.856441 6.08686
upperneck 3.53484 0.0943312 2.41885
head 3.15296 0.246715 -0.286085
lclavicle 4.67641e-14 -7.95139e-15 0
lhumerus -59.0065 -44.9281 115.638
lradius 55.1893 -0 0
lwrist 25.1399 0 0
lhand 37.9039 29.4893 0.0160705
lfingers 7.12502 -0 0
lthumb 60.6157 42.4503 -0.0190248
rclavicle 4.67641e-14 -7.95139e-15 0
rhumerus -9.80863 -10.985 -16.2667
rradius 84.0323 -0 0
rwrist -23.3799 0 0
rhand -30.7791 -49.3411 8.69967
rfingers 7.12502 -0 0
rthumb -11.9226 80.3815 -15.9071
207
root 4.74743 15.0728 -25.4403 7.66788 -1.06426 4.9117
lfemur 5.86703 -7.41577 3.21693
ltibia 5.734 -0 0
lfoot -33.4648 -14.9351 -0.694137
ltoes 51.9295 -0 0
rfemur -30.608 -20.3611 -7.69842
rtibia 49.127 -0 0
rfoot -29.7662 18.2762 1.02597
rtoes 60.1991 -0 0
lowerback -2.28424 -1.65478 -0.770072
upperback -0.717587 -2.16579 -7.13209
thorax 0.266475 -1.09608 -7.0531
lowerneck -11.305 0.910727 6.2425
upperneck 3.48181 0.163396 2.32025
head 3.11333 0.276565 -0.339231
lclavicle 4.67641e-14 -7.95139e-15 0
lhumerus -59.2025 -45.0952 115.898
lradius 55.2055 -0 0
lwrist 25.3447 0 0
lhand 37.6259 29.3616 0.0136793
lfingers 7.12502 -0 0
lthumb 60.3827 42.6033 -0.0159639
rclavicle 4.67641e-14 -7.95139e-15 0
rhumerus -9.41405 -15.5883 -15.9011
rradius 81.079 -0 0
rwrist -23.3708 0 0
rhand -35.5921 -52.6936 7.26223
rfingers 7.12502 -0 0
rthumb -15.3066 84.4223 -12.3472
208
root 4.74479 15.0626 -25.4641 7.69234 -1.06191 4.88733
lfemur 5.67522 -6.62419 2.98417
ltibia 6.32713 -0 0
lfoot -33.9182 -13.8795 -0.543089
ltoes 51.0992 -0 0
rfemur -31.1589 -20.5814 -7.48104
rtibia 49.7989 -0 0
rfoot -29.2732 18.465 0.818862
rtoes 60.2996 -0 0
lowerback -2.10302 -1.65484 -0.753329
upperback -0.713282 -2.17374 -7.07131
thorax 0.175046 -1.10244 -6.98792
lowerneck -11.1786 0.940302 6.37132
upperneck 3.42687 0.202908 2.23305
head 3.07407 0.29183 -0.385513
lclavicle 4.67641e-14 -7.95139e-15 0
lhumerus -59.3658 -45.2453 116.146
lradius 55.2132 -0 0
lwrist 25.5147 0 0
lhand 37.3579 29.2369 0.0107727
lfingers 7.12502 -0 0
lthumb 60.1581 42.7492 -0.0123991
rclavicle 4.67641e-14 -7.95139e-15 0
rhumerus -9.15476 -19.9083 -15.7558
rradius 78.268 -0 0
rwrist -23.3125 0 0
rhand -40.1269 -55.7704 5.60446
rfingers 7.12502 -0 0
rthumb -18.1561 87.5495 -8.84135
209
root 4.74087 15.0541 -25.4895 7.70695 -0.969128 4.8575
lfemur 5.41661 -5.75017 2.7345
ltibia 6.99371 -0 0
lfoot -34.2679 -12.8096 -0.374517
ltoes 50.2018 -0 0
rfemur -31.653 -20.7379 -7.27027
rtibia 50.4697 -0 0
rfoot -28.7042 18.5162 0.57746
rtoes 60.3428 -0 0
lowerback -1.92049 -1.66487 -0.739071
upperback -0.706418 -2.19454 -6.99979
thorax 0.08541 -1.11514 -6.90996
lowerneck -11.0553 0.943494 6.47039
upperneck 3.37047 0.210704 2.15876
head 3.03556 0.291481 -0.424079
lclavicle 4.67641e-14 -7.95139e-15 0
lhumerus -59.4923 -45.3762 116.379
lradius 55.2121 -0 0
lwrist 25.6463 0 0
lhand 37.103 29.1163 0.00744395
lfingers 7.12502 -0 0
lthumb 59.9444 42.8862 -0.0084524
rclavicle 4.67641e-14 -7.95139e-15 0
rhumerus -9.01722 -23.8863 -15.8342
rradius 75.6332 -0 0
rwrist -23.2026 0 0
rhand -44.3385 -58.5381 3.7933
rfingers 7.12502 -0 0
rthumb -20.5432 89.7793 -5.53282
210
root 4.735 15.0473 -25.5165 7.71083 -0.780654 4.82211
lfemur 5.08835 -4.79599 2.46699
ltibia 7.73308 -0 0
lfoot -34.5039 -11.733 -0.192098
ltoes 49.2405 -0 0
rfemur -32.0815 -20.8259 -7.06981
rtibia 51.1338 -0 0
rfoot -28.0582 18.4193 0.303616
rtoes 60.3245 -0 0
lowerback -1.73809 -1.68543 -0.727633
upperback -0.696912 -2.22888 -6.9174
thorax -0.00158334 -1.13447 -6.81903
lowerneck -10.9364 0.918643 6.53683
upperneck 3.31305 0.184624 2.09893
head 2.9982 0.27449 -0.454075
lclavicle 4.67641e-14 -7.95139e-15 0
lhumerus -59.578 -45.4857 116.594
lradius 55.2015 -0 0
lwrist 25.736 0 0
lhand 36.8641 29.001 0.00380841
lfingers 7.12502 -0 0
lthumb 59.7443 43.0125 -0.00426637
rclavicle 4.67641e-14 -7.95139e-15 0
rhumerus -8.9908 -27.4647 -16.1435
rradius 73.2081 -0 0
rwrist -23.0384 0 0
rhand -48.1915 -60.9753 1.90064
rfingers 7.12502 -0 0
rthumb -22.5336 91.1194 -2.54826
211
root 4.72652 15.0422 -25.545 7.70309 -0.491237 4.781
lfemur 4.68749 -3.76403 2.18034
ltibia 8.54457 0 0
lfoot -34.6162 -10.6571 0
ltoes 48.2181 0 0
rfemur -32.4355 -20.8402 -6.88321
rtibia 51.7854 0 0
rfoot -27.3336 18.1638 0
rtoes 60.2405 0 0
lowerback -1.55725 -1.71709 -0.719351
upperback -0.684689 -2.27746 -6.82404
thorax -0.0850889 -1.16073 -6.7149
lowerneck -10.8231 0.864097 6.56772
upperneck 3.25503 0.122515 2.05509
head 2.96236 0.239828 -0.474647
lclavicle 1.98785e-16 1.43125e-14 0
lhumerus -59.6189 -45.5717 116.787
lradius 55.1807 0 0
lwrist 25.7799 0 0
lhand 36.6442 28.8925 0
lfingers 7.12502 0 0
lthumb 59.5601 43.1265 0
rclavicle 1.98785e-16 1.43125e-14 0
rhumerus -9.06837 -30.5869 -16.6934
rradius 71.0267 0 0
rwrist -22.8175 0 0
rhand -51.6573 -63.0713 0
rfingers 7.12502 0 0
rthumb -24.1789 -628.433 0
212
root 4.71419 15.0387 -25.5737 7.84964 -0.296771 4.47585
lfemur 3.68998 -2.69321 2.45507
ltibia 9.78551 -0 0
lfoot -34.386 -9.92445 0.119186
ltoes 46.3094 -0 0
rfemur -32.5204 -21.0003 -6.4656
rtibia 51.6387 -0 0
rfoot -27.4782 18.152 0.0163106
rtoes 60.3397 -0 0
lowerback -1.42416 -1.70053 -0.628702
upperback -0.68381 -2.25915 -6.5956
thorax -0.150656 -1.15417 -6.52343
lowerneck -10.8121 0.886079 6.51114
upperneck 3.17679 0.168882 1.95655
head 2.93248 0.256483 -0.493625
lclavicle 1.98785e-16 1.43125e-14 0
lhumerus -59.5895 -45.4649 116.991
lradius 55.3499 -0 0
lwrist 25.7177 0 0
lhand 35.9125 28.5029 0.0663482
lfingers 7.12502 -0 0
lthumb 58.8978 43.1494 0.00932599
rclavicle 1.98785e-16 1.43125e-14 0
rhumerus -9.00435 -31.5953 -17.8325
rradius 70.8901 -0 0
rwrist -23.139 0 0
rhand -59.4543 -66.1365 -3.36922
rfingers 7.12502 -0 0
rthumb -27.107 97.5993 5.79069
